<svg xmlns="http://www.w3.org/2000/svg" viewBox="0 0 680.3 114.8" xmlns:v="https://vecta.io/nano"><path d="M607.8 113.5h34.3v-9.3h-1c-4.7 0-5.4-1.5-5.4-5.4v-20c0-5.6 4-9.4 9.3-9.4 5.7 0 7.5 3.9 7.5 8.6v20.8c0 3.9-.7 5.4-5.4 5.4h-1v9.3h34.3v-9.3h-1.6c-5.4 0-6-1.5-6-5.4V75.1c0-10.7-5.2-19.7-19.6-19.7-9.5 0-15 4.5-18.6 10h-.7v-8.6h-26v9.3h1.6c5.4 0 6 1.5 6 5.4v27.3c0 3.9-.6 5.4-6 5.4h-1.6v9.3zm-45.1-28.4c0-13.9 2.8-19.8 9.5-19.8 6.8 0 9.5 6 9.5 19.8 0 13.9-2.8 19.8-9.5 19.8-6.7.1-9.5-5.9-9.5-19.8m-22.1 0c0 17.4 12.8 29.7 31.7 29.7 18.8 0 31.7-12.3 31.7-29.7s-12.8-29.7-31.7-29.7-31.7 12.3-31.7 29.7M501 113.5h38.2v-9.3h-3c-5.4 0-6-1.5-6-5.4v-42H501v9.3h3c5.4 0 6 1.5 6 5.4v27.3c0 3.9-.6 5.4-6 5.4h-3v9.3zm-48.5-47.4h10.2v32c0 10 6.1 16.7 18.2 16.7 7 0 12.4-2.1 15.4-3.8V99.9c-1.7.9-4.9 2.2-7.8 2.2s-5.7-1-5.7-5.6V66.1h13.5v-9.3h-13.5V39.6h-12.3c-1.7 10.3-6.1 17.2-16.4 17.2h-1.6v9.3zm-39.6 30.4c0-4.5 3.2-8.1 11.7-8.1h3.1v3.4c0 6.5-4.4 10.6-8.8 10.6-3.8-.1-6-2.2-6-5.9m-20.2 2.3c0 9.9 6.8 16.1 17.9 16.1 8.3 0 14.9-3.9 18.2-10h.7c1.3 6.7 7.1 9.5 14.7 9.5 4.2 0 8.4-1.5 10.9-2.9v-9.3c-.8.5-2.2.8-3.3.8-2 0-4-.7-4-4.5V76.3c0-11.7-7.6-20.9-26.4-20.9-12.8 0-26.2 5.3-26.2 18.2v3.2h18.2v-3.2c0-4.2 3-6.8 7.1-6.8s7.1 2.3 7.1 6.8v6.5h-3.4c-18.1.1-31.5 4.5-31.5 18.7m-160 14.7h39.7v-9.3h-5.6c-6.4 0-7.1-1.5-7.1-5.4V81.3c0-5.9 4.8-8 13.8-8h4.9V56.8h-2.2c-8.7 0-14.1 4-17.3 11h-.7v-11h-25.5v9.3h1.6c5.4 0 6 1.5 6 5.4v27.3c0 3.9-.6 5.4-6 5.4h-1.6v9.3zm-45.1-28.4c0-13.9 2.8-19.8 9.5-19.8 6.8 0 9.5 6 9.5 19.8 0 13.9-2.8 19.8-9.5 19.8-6.8.1-9.5-5.9-9.5-19.8m-22.2 0c0 17.4 12.8 29.7 31.7 29.7s31.7-12.3 31.7-29.7-12.8-29.7-31.7-29.7-31.7 12.3-31.7 29.7m-46-19h10.8v32.7c0 3.9-.6 5.4-6 5.4h-1.6v9.3h40.5v-9.3h-5.6c-6.4 0-7.1-1.5-7.1-5.4V66.1h16.2v-9.3h-17.3v-9.5c0-4.1 1.5-6.3 4.4-6.3 3.2 0 4.4 2.2 4.4 5.9v3.8h17.3v-3.8c0-10.4-7.1-17.3-21.3-17.3-14.7 0-23.7 9.1-23.7 22.8v4.5h-10.8v9.2zm-74 47.4h34.3v-9.3h-1c-4.7 0-5.4-1.5-5.4-5.4v-20c0-5.6 4-9.4 9.3-9.4 5.7 0 7.5 3.9 7.5 8.6v20.8c0 3.9-.7 5.4-5.4 5.4h-1v9.3H118v-9.3h-1.6c-5.4 0-6-1.5-6-5.4V75.1c0-10.7-5.2-19.7-19.6-19.7-9.5 0-15 4.5-18.6 10h-.7v-8.6h-26v9.3H47c5.4 0 6 1.5 6 5.4v27.3c0 3.9-.6 5.4-6 5.4h-1.6v9.3zm-45.4 0h40.7v-9.3h-3.3c-5.6 0-6.5-1.3-6.5-5.4V49.2c0-4.1.9-5.4 6.5-5.4h3.3v-9.3H0v9.3h3.3c5.6 0 6.5 1.3 6.5 5.4v49.6c0 4.1-.9 5.4-6.5 5.4H0v9.3zm283 0h33.7v-9.3h-.5c-4.7 0-5.4-1.5-5.4-5.4v-20c0-5.6 4-9.4 8.7-9.4 5.3 0 6.9 3.9 6.9 8.6v20.8c0 3.9-.7 5.4-5.4 5.4h-.5v9.3h32v-9.3h-.5c-4.7 0-5.4-1.5-5.4-5.4v-20c0-5.6 4-9.4 8.7-9.4 5.3 0 6.9 3.9 6.9 8.6v20.8c0 3.9-.7 5.4-5.4 5.4h-.5v9.3H390v-9.3h-1.6c-5.4 0-6-1.5-6-5.4V75.1c0-10.7-5.4-19.7-18.8-19.7-8.9 0-14.6 4.4-18.2 10h-.4c-1.4-4.1-5.7-10-17-10-8.9 0-14.6 4.4-18.2 10h-.7v-8.6h-26v9.3h1.6c5.4 0 6 1.5 6 5.4v27.3c0 3.9-.6 5.4-6 5.4H283v9.3z"></path><path d="M509.9 43.4c0 5.6 4.6 7.2 7.3 7.2 5.9 0 11.4-3.6 32-25.6 8.7-9.3 11.1-12.3 11.1-15.7 0-4.6-4.7-9.3-14.7-9.3-8.9 0-19.5 3.6-24.3 13.8-9.1 19.5-11.4 25.3-11.4 29.6" fill="#e40612"></path></svg>